# xmcd CD database file
#
# Track frame offsets:
#	150
#	19960
#	36571
#	50369
#	69679
#	83912
#	103501
#	119954
#	136282
#	148646
#	161375
#
# Disc length: 2314 seconds
#
# Revision: 0
# Processed by: cddbd v1.5.2PL0 Copyright (c) Steve Scherf et al.
# Submitted via: CDex 1.51
#
DISCID=a109080b
DTITLE=Pedro Reyes - Latin Rumba
DYEAR=2002
DGENRE=Salsa
TTITLE0=01 - Quien me va a querer
TTITLE1=02 - Sabor, sabor
TTITLE2=03 - Cosecha de mujeres
TTITLE3=04 - Torero
TTITLE4=05 - La gota fría
TTITLE5=06 - Nascut a Barcelona
TTITLE6=07 - Princesa de Barcelona
TTITLE7=08 - Que se mueran los feos
TTITLE8=09 - Verde
TTITLE9=10 - La piragua
TTITLE10=11 - Pollo picón
EXTD=YEAR: 2002
EXTT0=
EXTT1=
EXTT2=
EXTT3=
EXTT4=
EXTT5=
EXTT6=
EXTT7=
EXTT8=
EXTT9=
EXTT10=
PLAYORDER=
